<mxfile host="app.diagrams.net" modified="2024-05-10T14:51:03.819Z" agent="Mozilla/5.0 (Macintosh; Intel Mac OS X 10_15_7) AppleWebKit/537.36 (KHTML, like Gecko) Chrome/124.0.0.0 Safari/537.36" etag="sLHTE2teeFICKxZ3YBEw" version="24.3.0" type="device">
  <diagram id="C5RBs43oDa-KdzZeNtuy" name="Page-1">
    <mxGraphModel dx="2128" dy="795" grid="1" gridSize="10" guides="1" tooltips="1" connect="1" arrows="1" fold="1" page="1" pageScale="1" pageWidth="827" pageHeight="1169" math="0" shadow="0">
      <root>
        <mxCell id="WIyWlLk6GJQsqaUBKTNV-0" />
        <mxCell id="WIyWlLk6GJQsqaUBKTNV-1" parent="WIyWlLk6GJQsqaUBKTNV-0" />
        <mxCell id="rqFTXorefG0VCRFSasaD-38" value="" style="edgeStyle=orthogonalEdgeStyle;rounded=0;orthogonalLoop=1;jettySize=auto;html=1;" edge="1" parent="WIyWlLk6GJQsqaUBKTNV-1" source="rqFTXorefG0VCRFSasaD-34" target="rqFTXorefG0VCRFSasaD-37">
          <mxGeometry relative="1" as="geometry" />
        </mxCell>
        <mxCell id="rqFTXorefG0VCRFSasaD-34" value="Producto" style="whiteSpace=wrap;html=1;align=center;" vertex="1" parent="WIyWlLk6GJQsqaUBKTNV-1">
          <mxGeometry x="-440" y="320" width="120" height="40" as="geometry" />
        </mxCell>
        <mxCell id="rqFTXorefG0VCRFSasaD-41" value="" style="edgeStyle=orthogonalEdgeStyle;rounded=0;orthogonalLoop=1;jettySize=auto;html=1;" edge="1" parent="WIyWlLk6GJQsqaUBKTNV-1" source="rqFTXorefG0VCRFSasaD-37" target="rqFTXorefG0VCRFSasaD-39">
          <mxGeometry relative="1" as="geometry" />
        </mxCell>
        <mxCell id="rqFTXorefG0VCRFSasaD-37" value="Nombre" style="ellipse;whiteSpace=wrap;html=1;align=center;" vertex="1" parent="WIyWlLk6GJQsqaUBKTNV-1">
          <mxGeometry x="-430" y="380" width="100" height="40" as="geometry" />
        </mxCell>
        <mxCell id="rqFTXorefG0VCRFSasaD-80" value="" style="edgeStyle=orthogonalEdgeStyle;rounded=0;orthogonalLoop=1;jettySize=auto;html=1;" edge="1" parent="WIyWlLk6GJQsqaUBKTNV-1" source="rqFTXorefG0VCRFSasaD-39" target="rqFTXorefG0VCRFSasaD-79">
          <mxGeometry relative="1" as="geometry" />
        </mxCell>
        <mxCell id="rqFTXorefG0VCRFSasaD-39" value="Precio" style="ellipse;whiteSpace=wrap;html=1;align=center;" vertex="1" parent="WIyWlLk6GJQsqaUBKTNV-1">
          <mxGeometry x="-430" y="440" width="100" height="40" as="geometry" />
        </mxCell>
        <mxCell id="rqFTXorefG0VCRFSasaD-42" value="" style="edgeStyle=orthogonalEdgeStyle;rounded=0;orthogonalLoop=1;jettySize=auto;html=1;" edge="1" parent="WIyWlLk6GJQsqaUBKTNV-1" source="rqFTXorefG0VCRFSasaD-43" target="rqFTXorefG0VCRFSasaD-45">
          <mxGeometry relative="1" as="geometry" />
        </mxCell>
        <mxCell id="rqFTXorefG0VCRFSasaD-43" value="Compra" style="whiteSpace=wrap;html=1;align=center;" vertex="1" parent="WIyWlLk6GJQsqaUBKTNV-1">
          <mxGeometry x="-40" y="320" width="120" height="40" as="geometry" />
        </mxCell>
        <mxCell id="rqFTXorefG0VCRFSasaD-44" value="" style="edgeStyle=orthogonalEdgeStyle;rounded=0;orthogonalLoop=1;jettySize=auto;html=1;" edge="1" parent="WIyWlLk6GJQsqaUBKTNV-1" source="rqFTXorefG0VCRFSasaD-45" target="rqFTXorefG0VCRFSasaD-46">
          <mxGeometry relative="1" as="geometry" />
        </mxCell>
        <mxCell id="rqFTXorefG0VCRFSasaD-45" value="Fecha" style="ellipse;whiteSpace=wrap;html=1;align=center;" vertex="1" parent="WIyWlLk6GJQsqaUBKTNV-1">
          <mxGeometry x="-30" y="380" width="100" height="40" as="geometry" />
        </mxCell>
        <mxCell id="rqFTXorefG0VCRFSasaD-78" value="" style="edgeStyle=orthogonalEdgeStyle;rounded=0;orthogonalLoop=1;jettySize=auto;html=1;" edge="1" parent="WIyWlLk6GJQsqaUBKTNV-1" source="rqFTXorefG0VCRFSasaD-46" target="rqFTXorefG0VCRFSasaD-77">
          <mxGeometry relative="1" as="geometry" />
        </mxCell>
        <mxCell id="rqFTXorefG0VCRFSasaD-46" value="Total" style="ellipse;whiteSpace=wrap;html=1;align=center;" vertex="1" parent="WIyWlLk6GJQsqaUBKTNV-1">
          <mxGeometry x="-30" y="440" width="100" height="40" as="geometry" />
        </mxCell>
        <mxCell id="rqFTXorefG0VCRFSasaD-47" value="" style="edgeStyle=orthogonalEdgeStyle;rounded=0;orthogonalLoop=1;jettySize=auto;html=1;" edge="1" parent="WIyWlLk6GJQsqaUBKTNV-1" source="rqFTXorefG0VCRFSasaD-48" target="rqFTXorefG0VCRFSasaD-50">
          <mxGeometry relative="1" as="geometry" />
        </mxCell>
        <mxCell id="rqFTXorefG0VCRFSasaD-48" value="Cliente" style="whiteSpace=wrap;html=1;align=center;" vertex="1" parent="WIyWlLk6GJQsqaUBKTNV-1">
          <mxGeometry x="360" y="320" width="120" height="40" as="geometry" />
        </mxCell>
        <mxCell id="rqFTXorefG0VCRFSasaD-49" value="" style="edgeStyle=orthogonalEdgeStyle;rounded=0;orthogonalLoop=1;jettySize=auto;html=1;" edge="1" parent="WIyWlLk6GJQsqaUBKTNV-1" source="rqFTXorefG0VCRFSasaD-50" target="rqFTXorefG0VCRFSasaD-51">
          <mxGeometry relative="1" as="geometry" />
        </mxCell>
        <mxCell id="rqFTXorefG0VCRFSasaD-50" value="Nombre" style="ellipse;whiteSpace=wrap;html=1;align=center;" vertex="1" parent="WIyWlLk6GJQsqaUBKTNV-1">
          <mxGeometry x="370" y="380" width="100" height="40" as="geometry" />
        </mxCell>
        <mxCell id="rqFTXorefG0VCRFSasaD-82" value="" style="edgeStyle=orthogonalEdgeStyle;rounded=0;orthogonalLoop=1;jettySize=auto;html=1;" edge="1" parent="WIyWlLk6GJQsqaUBKTNV-1" source="rqFTXorefG0VCRFSasaD-51" target="rqFTXorefG0VCRFSasaD-81">
          <mxGeometry relative="1" as="geometry" />
        </mxCell>
        <mxCell id="rqFTXorefG0VCRFSasaD-51" value="Apellido" style="ellipse;whiteSpace=wrap;html=1;align=center;" vertex="1" parent="WIyWlLk6GJQsqaUBKTNV-1">
          <mxGeometry x="370" y="440" width="100" height="40" as="geometry" />
        </mxCell>
        <mxCell id="rqFTXorefG0VCRFSasaD-52" value="Tiene" style="shape=rhombus;perimeter=rhombusPerimeter;whiteSpace=wrap;html=1;align=center;" vertex="1" parent="WIyWlLk6GJQsqaUBKTNV-1">
          <mxGeometry x="-240" y="320" width="120" height="60" as="geometry" />
        </mxCell>
        <mxCell id="rqFTXorefG0VCRFSasaD-53" value="Realiza" style="shape=rhombus;perimeter=rhombusPerimeter;whiteSpace=wrap;html=1;align=center;" vertex="1" parent="WIyWlLk6GJQsqaUBKTNV-1">
          <mxGeometry x="160" y="320" width="120" height="60" as="geometry" />
        </mxCell>
        <mxCell id="rqFTXorefG0VCRFSasaD-63" value="" style="endArrow=none;html=1;rounded=0;dashed=1;dashPattern=1 2;" edge="1" parent="WIyWlLk6GJQsqaUBKTNV-1">
          <mxGeometry relative="1" as="geometry">
            <mxPoint x="-120" y="349.5" as="sourcePoint" />
            <mxPoint x="-40" y="350" as="targetPoint" />
          </mxGeometry>
        </mxCell>
        <mxCell id="rqFTXorefG0VCRFSasaD-64" value="" style="resizable=0;html=1;whiteSpace=wrap;align=left;verticalAlign=bottom;" connectable="0" vertex="1" parent="rqFTXorefG0VCRFSasaD-63">
          <mxGeometry x="-1" relative="1" as="geometry" />
        </mxCell>
        <mxCell id="rqFTXorefG0VCRFSasaD-65" value="N" style="resizable=0;html=1;whiteSpace=wrap;align=right;verticalAlign=bottom;" connectable="0" vertex="1" parent="rqFTXorefG0VCRFSasaD-63">
          <mxGeometry x="1" relative="1" as="geometry" />
        </mxCell>
        <mxCell id="rqFTXorefG0VCRFSasaD-66" value="" style="endArrow=none;html=1;rounded=0;dashed=1;dashPattern=1 2;" edge="1" parent="WIyWlLk6GJQsqaUBKTNV-1">
          <mxGeometry relative="1" as="geometry">
            <mxPoint x="-320" y="349.5" as="sourcePoint" />
            <mxPoint x="-240" y="350" as="targetPoint" />
          </mxGeometry>
        </mxCell>
        <mxCell id="rqFTXorefG0VCRFSasaD-67" value="M" style="resizable=0;html=1;whiteSpace=wrap;align=left;verticalAlign=bottom;" connectable="0" vertex="1" parent="rqFTXorefG0VCRFSasaD-66">
          <mxGeometry x="-1" relative="1" as="geometry" />
        </mxCell>
        <mxCell id="rqFTXorefG0VCRFSasaD-68" value="" style="resizable=0;html=1;whiteSpace=wrap;align=right;verticalAlign=bottom;" connectable="0" vertex="1" parent="rqFTXorefG0VCRFSasaD-66">
          <mxGeometry x="1" relative="1" as="geometry" />
        </mxCell>
        <mxCell id="rqFTXorefG0VCRFSasaD-69" value="" style="endArrow=none;html=1;rounded=0;dashed=1;dashPattern=1 2;" edge="1" parent="WIyWlLk6GJQsqaUBKTNV-1">
          <mxGeometry relative="1" as="geometry">
            <mxPoint x="80" y="349.5" as="sourcePoint" />
            <mxPoint x="160" y="350" as="targetPoint" />
          </mxGeometry>
        </mxCell>
        <mxCell id="rqFTXorefG0VCRFSasaD-70" value="N" style="resizable=0;html=1;whiteSpace=wrap;align=left;verticalAlign=bottom;" connectable="0" vertex="1" parent="rqFTXorefG0VCRFSasaD-69">
          <mxGeometry x="-1" relative="1" as="geometry" />
        </mxCell>
        <mxCell id="rqFTXorefG0VCRFSasaD-71" value="" style="resizable=0;html=1;whiteSpace=wrap;align=right;verticalAlign=bottom;" connectable="0" vertex="1" parent="rqFTXorefG0VCRFSasaD-69">
          <mxGeometry x="1" relative="1" as="geometry" />
        </mxCell>
        <mxCell id="rqFTXorefG0VCRFSasaD-72" value="" style="endArrow=none;html=1;rounded=0;dashed=1;dashPattern=1 2;" edge="1" parent="WIyWlLk6GJQsqaUBKTNV-1">
          <mxGeometry relative="1" as="geometry">
            <mxPoint x="280" y="349.5" as="sourcePoint" />
            <mxPoint x="360" y="350" as="targetPoint" />
          </mxGeometry>
        </mxCell>
        <mxCell id="rqFTXorefG0VCRFSasaD-74" value="1" style="resizable=0;html=1;whiteSpace=wrap;align=right;verticalAlign=bottom;" connectable="0" vertex="1" parent="rqFTXorefG0VCRFSasaD-72">
          <mxGeometry x="1" relative="1" as="geometry" />
        </mxCell>
        <mxCell id="rqFTXorefG0VCRFSasaD-77" value="Codigo" style="ellipse;whiteSpace=wrap;html=1;align=center;fontStyle=4" vertex="1" parent="WIyWlLk6GJQsqaUBKTNV-1">
          <mxGeometry x="-30" y="500" width="100" height="40" as="geometry" />
        </mxCell>
        <mxCell id="rqFTXorefG0VCRFSasaD-79" value="Codigo" style="ellipse;whiteSpace=wrap;html=1;align=center;fontStyle=4" vertex="1" parent="WIyWlLk6GJQsqaUBKTNV-1">
          <mxGeometry x="-430" y="500" width="100" height="40" as="geometry" />
        </mxCell>
        <mxCell id="rqFTXorefG0VCRFSasaD-84" value="" style="edgeStyle=orthogonalEdgeStyle;rounded=0;orthogonalLoop=1;jettySize=auto;html=1;" edge="1" parent="WIyWlLk6GJQsqaUBKTNV-1" source="rqFTXorefG0VCRFSasaD-81" target="rqFTXorefG0VCRFSasaD-83">
          <mxGeometry relative="1" as="geometry" />
        </mxCell>
        <mxCell id="rqFTXorefG0VCRFSasaD-81" value="Documento" style="ellipse;whiteSpace=wrap;html=1;align=center;" vertex="1" parent="WIyWlLk6GJQsqaUBKTNV-1">
          <mxGeometry x="370" y="500" width="100" height="40" as="geometry" />
        </mxCell>
        <mxCell id="rqFTXorefG0VCRFSasaD-83" value="id" style="ellipse;whiteSpace=wrap;html=1;align=center;fontStyle=4" vertex="1" parent="WIyWlLk6GJQsqaUBKTNV-1">
          <mxGeometry x="370" y="560" width="100" height="40" as="geometry" />
        </mxCell>
      </root>
    </mxGraphModel>
  </diagram>
</mxfile>
